<svg width="178" height="28" viewBox="0 0 178 28" fill="none" xmlns="http://www.w3.org/2000/svg">
<path fill-rule="evenodd" clip-rule="evenodd" d="M16.0785 8.69366L12.6225 4.40501V6.12668C12.6225 6.52516 12.7801 8.21872 11.8344 9.26474C11.2542 9.90654 10.3939 10.1925 10.1006 10.6096C9.68031 11.2073 9.78538 11.8051 9.78538 12.444V26.7889C10.2094 26.8985 10.6936 26.8051 11.0448 26.4402L15.4731 21.8391C15.7993 21.5001 16.3014 21.3681 16.7652 21.4994L23.0606 23.281C24.1497 23.5892 25.0792 22.4814 24.5174 21.5446L21.2702 16.1301C21.031 15.7311 21.0537 15.2376 21.3287 14.86L25.0613 9.73434C25.7071 8.84757 24.883 7.66714 23.7696 7.88421L17.3345 9.13887C16.8604 9.2313 16.3723 9.0583 16.0785 8.69366ZM4.11111 16.725L4.11111 12.909L2.07258 13.5888C1.00036 13.9463 0.935235 15.3606 1.9705 15.8053L4.11111 16.725Z" fill="#B8252F"/>
<path d="M12.0285 27.1729C10.4981 28.8419 7.5788 27.7642 7.57871 25.5527C7.57854 20.437 7.57879 16.4726 7.57879 11.3568C7.57879 9.56359 8.26203 9.04037 8.99728 8.51758C9.62776 8.06928 10.4159 7.77042 10.4159 6.3617V1.05383C10.4159 0.46233 10.6497 0.298862 11.0463 0.298862C11.443 0.298862 11.6768 0.462333 11.6768 1.05383V6.3617C11.6768 7.77042 11.5192 8.36815 10.4159 9.1153C9.31252 9.86246 8.83974 10.1613 8.83974 11.3568C8.83974 16.5744 8.83811 20.4006 8.83974 25.5527C8.83974 26.4493 10.2787 27.2362 11.0448 26.4402L15.4731 21.8391C15.7993 21.5001 16.3014 21.3681 16.7652 21.4994L23.0606 23.281C24.1497 23.5892 25.0792 22.4814 24.5174 21.5446L21.2702 16.1301C21.031 15.7311 21.0537 15.2376 21.3287 14.86L25.0613 9.73434C25.7071 8.84757 24.883 7.66714 23.7696 7.88421L17.3345 9.13887C16.8604 9.2313 16.3723 9.0583 16.0785 8.69366L12.6225 4.40822L12.6463 2.625L16.0392 6.85417C17.017 8.073 17.0891 7.95393 18.1983 7.72917C20.5584 7.25094 23.4282 6.74324 23.4282 6.74324C25.701 6.24586 27.4067 8.68902 26.0357 10.4781L22.9792 14.7292C22.3844 15.5053 22.458 15.6568 22.9792 16.4792L25.5565 20.8842C26.7578 22.7798 24.834 25.0727 22.6155 24.3894L17.5814 22.8958C16.619 22.5994 16.3946 22.4635 15.7307 23.1875L12.0285 27.1729Z" fill="#333333"/>
<path d="M2.85017 0.298862C3.24682 0.298862 3.48064 0.46233 3.48064 1.05383V6.3617C3.48064 7.77042 4.26873 8.06928 4.89921 8.51758C5.63446 9.04037 6.3177 9.56359 6.3177 11.3568L6.31778 26.4258C6.31777 27.0235 6.08149 27.1729 5.68737 27.173C5.29319 27.173 5.05675 27.0235 5.05675 26.4258V11.3568C5.05675 10.1613 4.58397 9.86246 3.48064 9.1153C2.37731 8.36815 2.21969 7.77042 2.21969 6.3617V1.05383C2.21969 0.462333 2.45351 0.298862 2.85017 0.298862Z" fill="#333333"/>
<path d="M1.74885 12.443C-0.47574 13.128 -0.613208 16.0553 1.5387 16.9179L4.11111 17.9467L4.11111 16.7243L1.97181 15.8042C0.934262 15.3602 1.00068 13.9458 2.07591 13.5875L4.11111 12.9109L4.11111 11.7152L1.74885 12.443Z" fill="#333333"/>
<path d="M5.68729 4.09388e-10C6.08395 -9.07542e-06 6.31778 0.150882 6.31778 0.754967V6.40964C6.31778 7.02009 6.08145 7.1727 5.68731 7.1727C5.29317 7.1727 5.05683 7.02009 5.05683 6.40964V0.754967C5.05683 0.150885 5.29064 9.07606e-06 5.68729 4.09388e-10Z" fill="#333333"/>
<path d="M8.2092 3.60366e-08C8.60586 -3.10558e-06 8.83968 0.150882 8.83968 0.754967V6.40964C8.83968 7.02009 8.60335 7.1727 8.20921 7.1727C7.81507 7.1727 7.57873 7.02009 7.57873 6.40964V0.754967C7.57873 0.150885 7.81255 3.17763e-06 8.2092 3.60366e-08Z" fill="#333333"/>
<path d="M33.6 20.8716V7.11388H38.7124C39.7597 7.11388 40.6384 7.29749 41.3485 7.66472C42.0629 8.03195 42.6021 8.54697 42.966 9.20978C43.3344 9.86811 43.5185 10.6362 43.5185 11.5139C43.5185 12.3962 43.3322 13.162 42.9594 13.8114C42.591 14.4563 42.0474 14.9556 41.3285 15.3094C40.6096 15.6587 39.7264 15.8334 38.6791 15.8334H35.0379V13.7643H38.3463C38.9587 13.7643 39.4602 13.6793 39.8507 13.5091C40.2412 13.3344 40.5297 13.0814 40.7161 12.75C40.9069 12.4141 41.0023 12.0021 41.0023 11.5139C41.0023 11.0258 40.9069 10.6093 40.7161 10.2645C40.5252 9.91514 40.2346 9.65091 39.844 9.47177C39.4535 9.28815 38.9498 9.19635 38.3329 9.19635H36.0697V20.8716H33.6ZM40.6428 14.6376L44.0178 20.8716H41.2619L37.9469 14.6376H40.6428Z" fill="#333333"/>
<path d="M49.8405 21.0731C48.8154 21.0731 47.93 20.8582 47.1845 20.4283C46.4434 19.9938 45.8731 19.3803 45.4737 18.5876C45.0743 17.7905 44.8746 16.8522 44.8746 15.7729C44.8746 14.7115 45.0743 13.78 45.4737 12.9784C45.8775 12.1723 46.4411 11.5453 47.1645 11.0974C47.8879 10.6451 48.7377 10.419 49.714 10.419C50.3442 10.419 50.9389 10.522 51.498 10.728C52.0616 10.9295 52.5587 11.243 52.9891 11.6684C53.4241 12.0939 53.7658 12.6358 54.0143 13.2941C54.2628 13.948 54.3871 14.7272 54.3871 15.6319V16.3775H46.0062V14.7384H52.0772C52.0727 14.2726 51.9729 13.8584 51.7776 13.4956C51.5824 13.1284 51.3094 12.8396 50.9588 12.6291C50.6127 12.4186 50.2088 12.3133 49.7473 12.3133C49.2547 12.3133 48.822 12.4343 48.4493 12.6761C48.0765 12.9134 47.7858 13.2269 47.5772 13.6166C47.3731 14.0017 47.2688 14.4249 47.2644 14.8862V16.3171C47.2644 16.9172 47.3731 17.4322 47.5905 17.8621C47.808 18.2876 48.112 18.6145 48.5025 18.8429C48.893 19.0668 49.3501 19.1788 49.8738 19.1788C50.2244 19.1788 50.5417 19.1295 50.8257 19.031C51.1097 18.928 51.356 18.778 51.5646 18.5809C51.7732 18.3839 51.9307 18.1398 52.0372 17.8487L54.2872 18.1039C54.1452 18.7041 53.8745 19.228 53.4751 19.6759C53.0801 20.1192 52.5742 20.4641 51.9574 20.7104C51.3405 20.9522 50.6349 21.0731 49.8405 21.0731Z" fill="#333333"/>
<path d="M64.282 13.2807L62.0853 13.5225C62.0232 13.2986 61.9144 13.0881 61.7591 12.8911C61.6082 12.694 61.4041 12.535 61.1467 12.4141C60.8893 12.2932 60.5742 12.2327 60.2014 12.2327C59.7 12.2327 59.2784 12.3424 58.9367 12.5619C58.5994 12.7813 58.433 13.0657 58.4374 13.415C58.433 13.7151 58.5417 13.9592 58.7636 14.1473C58.9899 14.3353 59.3627 14.4899 59.8819 14.6108L61.626 14.987C62.5934 15.1974 63.3124 15.5311 63.7828 15.9879C64.2576 16.4447 64.4973 17.0426 64.5017 17.7815C64.4973 18.4309 64.3087 19.0041 63.9359 19.5012C63.5675 19.9938 63.055 20.379 62.3982 20.6567C61.7414 20.9343 60.9869 21.0731 60.1349 21.0731C58.8834 21.0731 57.876 20.8089 57.1127 20.2805C56.3494 19.7475 55.8945 19.0064 55.7481 18.0569L58.0979 17.8285C58.2044 18.2943 58.4308 18.6458 58.7769 18.8832C59.1231 19.1206 59.5735 19.2392 60.1282 19.2392C60.7007 19.2392 61.16 19.1206 61.5062 18.8832C61.8568 18.6458 62.032 18.3525 62.032 18.0032C62.032 17.7076 61.9189 17.4635 61.6926 17.271C61.4707 17.0784 61.1245 16.9306 60.6541 16.8276L58.91 16.4581C57.9293 16.2521 57.2037 15.905 56.7333 15.4169C56.2629 14.9243 56.0299 14.3018 56.0343 13.5494C56.0299 12.9134 56.2007 12.3626 56.5469 11.8968C56.8975 11.4266 57.3834 11.0639 58.0047 10.8086C58.6305 10.5488 59.3516 10.419 60.1682 10.419C61.3664 10.419 62.3094 10.6765 62.9973 11.1915C63.6896 11.7065 64.1178 12.4029 64.282 13.2807Z" fill="#333333"/>
<path d="M71.3695 10.5533V12.4343H65.4916V10.5533H71.3695ZM66.9428 8.08122H69.3525V17.7681C69.3525 18.095 69.4013 18.3458 69.499 18.5204C69.601 18.6906 69.7342 18.8071 69.8984 18.8698C70.0626 18.9325 70.2445 18.9638 70.4442 18.9638C70.5951 18.9638 70.7327 18.9526 70.8569 18.9302C70.9856 18.9078 71.0833 18.8877 71.1498 18.8698L71.5559 20.7709C71.4272 20.8156 71.243 20.8649 71.0034 20.9186C70.7682 20.9724 70.4797 21.0037 70.138 21.0127C69.5345 21.0306 68.9908 20.9388 68.5071 20.7373C68.0234 20.5313 67.6395 20.2133 67.3555 19.7834C67.0759 19.3534 66.9383 18.816 66.9428 18.1711V8.08122Z" fill="#333333"/>
<path d="M76.8444 21.053C76.0412 21.053 75.3222 20.8447 74.6876 20.4283C74.053 20.0118 73.5515 19.4072 73.1832 18.6145C72.8149 17.8218 72.6307 16.8589 72.6307 15.7259C72.6307 14.5794 72.8171 13.6121 73.1898 12.8239C73.5671 12.0312 74.0752 11.4333 74.7142 11.0303C75.3533 10.6227 76.0656 10.419 76.8511 10.419C77.4502 10.419 77.9428 10.522 78.3289 10.728C78.7149 10.9295 79.0212 11.1736 79.2475 11.4602C79.4738 11.7423 79.6491 12.0088 79.7734 12.2596H79.8732V10.5533H82.2896V20.8716H79.9198V19.2459H79.7734C79.6491 19.4967 79.4694 19.7632 79.2342 20.0453C78.999 20.323 78.6883 20.5604 78.3022 20.7574C77.9161 20.9545 77.4302 21.053 76.8444 21.053ZM77.5167 19.0579C78.0271 19.0579 78.462 18.919 78.8215 18.6414C79.1809 18.3592 79.4538 17.9674 79.6402 17.4658C79.8266 16.9642 79.9198 16.3798 79.9198 15.7125C79.9198 15.0452 79.8266 14.4652 79.6402 13.9726C79.4583 13.48 79.1876 13.0971 78.8281 12.8239C78.4731 12.5507 78.036 12.4141 77.5167 12.4141C76.9798 12.4141 76.5315 12.5552 76.1721 12.8373C75.8126 13.1195 75.5419 13.5091 75.3599 14.0062C75.178 14.5033 75.087 15.0721 75.087 15.7125C75.087 16.3574 75.178 16.9328 75.3599 17.4389C75.5463 17.9405 75.8193 18.3368 76.1787 18.6279C76.5426 18.9145 76.9886 19.0579 77.5167 19.0579Z" fill="#333333"/>
<path d="M91.1495 16.532V10.5533H93.5592V20.8716H91.2227V19.0377H91.1162C90.8854 19.6154 90.506 20.0879 89.9779 20.4551C89.4542 20.8224 88.8085 21.006 88.0408 21.006C87.3706 21.006 86.7782 20.8559 86.2634 20.5559C85.7531 20.2514 85.3536 19.8102 85.0652 19.2325C84.7767 18.6503 84.6325 17.9472 84.6325 17.1232V10.5533H87.0422V16.747C87.0422 17.4008 87.2198 17.9203 87.5748 18.3055C87.9298 18.6906 88.3958 18.8832 88.9727 18.8832C89.3277 18.8832 89.6717 18.7959 90.0045 18.6212C90.3373 18.4465 90.6103 18.1868 90.8233 17.842C91.0407 17.4926 91.1495 17.056 91.1495 16.532Z" fill="#333333"/>
<path d="M95.8122 20.8716V10.5533H98.1487V12.273H98.2552C98.4416 11.6774 98.7612 11.2184 99.2138 10.8959C99.6709 10.569 100.192 10.4055 100.778 10.4055C100.911 10.4055 101.06 10.4122 101.224 10.4257C101.393 10.4346 101.533 10.4503 101.644 10.4727V12.7097C101.541 12.6738 101.379 12.6425 101.158 12.6156C100.94 12.5843 100.729 12.5686 100.525 12.5686C100.086 12.5686 99.6909 12.6649 99.3403 12.8575C98.9941 13.0456 98.7212 13.3075 98.5215 13.6434C98.3218 13.9793 98.222 14.3667 98.222 14.8056V20.8716H95.8122Z" fill="#333333"/>
<path d="M106.393 21.053C105.59 21.053 104.871 20.8447 104.236 20.4283C103.601 20.0118 103.1 19.4072 102.732 18.6145C102.363 17.8218 102.179 16.8589 102.179 15.7259C102.179 14.5794 102.366 13.6121 102.738 12.8239C103.115 12.0312 103.624 11.4333 104.263 11.0303C104.902 10.6227 105.614 10.419 106.399 10.419C106.999 10.419 107.491 10.522 107.877 10.728C108.263 10.9295 108.57 11.1736 108.796 11.4602C109.022 11.7423 109.198 12.0088 109.322 12.2596H109.422V10.5533H111.838V20.8716H109.468V19.2459H109.322C109.198 19.4967 109.018 19.7632 108.783 20.0453C108.547 20.323 108.237 20.5604 107.851 20.7574C107.465 20.9545 106.979 21.053 106.393 21.053ZM107.065 19.0579C107.576 19.0579 108.01 18.919 108.37 18.6414C108.729 18.3592 109.002 17.9674 109.189 17.4658C109.375 16.9642 109.468 16.3798 109.468 15.7125C109.468 15.0452 109.375 14.4652 109.189 13.9726C109.007 13.48 108.736 13.0971 108.377 12.8239C108.022 12.5507 107.584 12.4141 107.065 12.4141C106.528 12.4141 106.08 12.5552 105.721 12.8373C105.361 13.1195 105.09 13.5091 104.908 14.0062C104.726 14.5033 104.635 15.0721 104.635 15.7125C104.635 16.3574 104.726 16.9328 104.908 17.4389C105.095 17.9405 105.368 18.3368 105.727 18.6279C106.091 18.9145 106.537 19.0579 107.065 19.0579Z" fill="#333333"/>
<path d="M116.591 14.8257V20.8716H114.181V10.5533H116.484V12.3066H116.604C116.839 11.7289 117.214 11.2699 117.729 10.9295C118.248 10.5891 118.889 10.419 119.653 10.419C120.358 10.419 120.973 10.5712 121.497 10.8758C122.025 11.1803 122.433 11.6214 122.722 12.1991C123.014 12.7769 123.159 13.4777 123.154 14.3018V20.8716H120.744V14.6779C120.744 13.9883 120.567 13.4486 120.212 13.059C119.861 12.6694 119.375 12.4746 118.754 12.4746C118.333 12.4746 117.958 12.5686 117.629 12.7567C117.305 12.9403 117.05 13.2068 116.864 13.5561C116.682 13.9054 116.591 14.3286 116.591 14.8257Z" fill="#333333"/>
<path d="M130.485 10.5533V12.4343H124.607V10.5533H130.485ZM126.058 8.08122H128.468V17.7681C128.468 18.095 128.517 18.3458 128.614 18.5204C128.716 18.6906 128.849 18.8071 129.014 18.8698C129.178 18.9325 129.36 18.9638 129.559 18.9638C129.71 18.9638 129.848 18.9526 129.972 18.9302C130.101 18.9078 130.198 18.8877 130.265 18.8698L130.671 20.7709C130.542 20.8156 130.358 20.8649 130.119 20.9186C129.883 20.9724 129.595 21.0037 129.253 21.0127C128.65 21.0306 128.106 20.9388 127.622 20.7373C127.139 20.5313 126.755 20.2133 126.471 19.7834C126.191 19.3534 126.054 18.816 126.058 18.1711V8.08122Z" fill="#333333"/>
<path d="M145.939 11.5072C145.828 11.1445 145.675 10.8198 145.48 10.5332C145.289 10.2421 145.059 9.99351 144.788 9.7875C144.522 9.58149 144.215 9.42699 143.869 9.32398C143.523 9.2165 143.146 9.16276 142.738 9.16276C142.005 9.16276 141.353 9.34861 140.78 9.72032C140.208 10.092 139.758 10.6384 139.429 11.3594C139.105 12.076 138.943 12.9493 138.943 13.9793C138.943 15.0183 139.105 15.8983 139.429 16.6193C139.753 17.3404 140.204 17.889 140.78 18.2652C141.357 18.6369 142.027 18.8227 142.791 18.8227C143.483 18.8227 144.082 18.6884 144.588 18.4197C145.098 18.151 145.491 17.7703 145.766 17.2777C146.041 16.7806 146.179 16.1984 146.179 15.5311L146.738 15.6184H143.037V13.6703H148.569V15.3228C148.569 16.5007 148.32 17.5195 147.823 18.3794C147.326 19.2392 146.643 19.902 145.773 20.3678C144.903 20.8291 143.905 21.0597 142.777 21.0597C141.522 21.0597 140.419 20.7753 139.469 20.2066C138.524 19.6333 137.785 18.8205 137.252 17.7681C136.724 16.7112 136.46 15.4572 136.46 14.0062C136.46 12.8955 136.616 11.9036 136.926 11.0303C137.241 10.157 137.681 9.41579 138.244 8.80672C138.808 8.19318 139.469 7.72742 140.228 7.40945C140.987 7.087 141.812 6.92578 142.704 6.92578C143.459 6.92578 144.162 7.03774 144.814 7.26166C145.467 7.48111 146.046 7.7946 146.552 8.20214C147.062 8.60967 147.482 9.09334 147.81 9.65315C148.138 10.213 148.354 10.831 148.456 11.5072H145.939Z" fill="#333333"/>
<path d="M157.142 16.532V10.5533H159.552V20.8716H157.216V19.0377H157.109C156.878 19.6154 156.499 20.0879 155.971 20.4551C155.447 20.8224 154.801 21.006 154.034 21.006C153.364 21.006 152.771 20.8559 152.256 20.5559C151.746 20.2514 151.347 19.8102 151.058 19.2325C150.77 18.6503 150.625 17.9472 150.625 17.1232V10.5533H153.035V16.747C153.035 17.4008 153.213 17.9203 153.568 18.3055C153.923 18.6906 154.389 18.8832 154.966 18.8832C155.321 18.8832 155.665 18.7959 155.997 18.6212C156.33 18.4465 156.603 18.1868 156.816 17.842C157.034 17.4926 157.142 17.056 157.142 16.532Z" fill="#333333"/>
<path d="M161.805 20.8716V10.5533H164.142V12.273H164.248C164.435 11.6774 164.754 11.2184 165.207 10.8959C165.664 10.569 166.185 10.4055 166.771 10.4055C166.904 10.4055 167.053 10.4122 167.217 10.4257C167.386 10.4346 167.526 10.4503 167.636 10.4727V12.7097C167.534 12.6738 167.372 12.6425 167.151 12.6156C166.933 12.5843 166.722 12.5686 166.518 12.5686C166.079 12.5686 165.684 12.6649 165.333 12.8575C164.987 13.0456 164.714 13.3075 164.514 13.6434C164.315 13.9793 164.215 14.3667 164.215 14.8056V20.8716H161.805Z" fill="#333333"/>
<path d="M175.529 16.532V10.5533H177.939V20.8716H175.603V19.0377H175.496C175.265 19.6154 174.886 20.0879 174.358 20.4551C173.834 20.8224 173.189 21.006 172.421 21.006C171.751 21.006 171.158 20.8559 170.643 20.5559C170.133 20.2514 169.734 19.8102 169.445 19.2325C169.157 18.6503 169.012 17.9472 169.012 17.1232V10.5533H171.422V16.747C171.422 17.4008 171.6 17.9203 171.955 18.3055C172.31 18.6906 172.776 18.8832 173.353 18.8832C173.708 18.8832 174.052 18.7959 174.384 18.6212C174.717 18.4465 174.99 18.1868 175.203 17.842C175.421 17.4926 175.529 17.056 175.529 16.532Z" fill="#333333"/>
</svg>
